<mxfile host="65bd71144e">
    <diagram name="Page-1" id="ZawWRaMBCuP6XKSEk7Cm">
        <mxGraphModel dx="1750" dy="1045" grid="0" gridSize="10" guides="1" tooltips="1" connect="0" arrows="1" fold="1" page="1" pageScale="1" pageWidth="827" pageHeight="1169" background="#ffffff" math="0" shadow="0">
            <root>
                <mxCell id="0"/>
                <mxCell id="1" parent="0"/>
                <mxCell id="yUulZCRCljH8GE0LO3J8-1" value="&lt;p style=&quot;line-height: 130%;&quot;&gt;&lt;font color=&quot;#000000&quot; style=&quot;font-size: 30px;&quot;&gt;MCD&lt;/font&gt;&lt;/p&gt;" style="text;html=1;strokeColor=none;fillColor=none;align=center;verticalAlign=middle;whiteSpace=wrap;rounded=0;strokeWidth=1;" parent="1" vertex="1">
                    <mxGeometry x="160" y="107" width="530" height="30" as="geometry"/>
                </mxCell>
                <mxCell id="100" style="edgeStyle=none;html=1;entryX=0.486;entryY=0.003;entryDx=0;entryDy=0;entryPerimeter=0;endArrow=none;endFill=0;strokeColor=#000000;strokeWidth=2;" parent="1" source="yUulZCRCljH8GE0LO3J8-4" target="99" edge="1">
                    <mxGeometry relative="1" as="geometry"/>
                </mxCell>
                <mxCell id="yUulZCRCljH8GE0LO3J8-4" value="users" style="swimlane;whiteSpace=wrap;html=1;rounded=0;glass=0;shadow=0;strokeWidth=3;fillColor=#000000;fontColor=#ffffff;strokeColor=#000000;" parent="1" vertex="1">
                    <mxGeometry x="39.75" y="222.5" width="200" height="200" as="geometry"/>
                </mxCell>
                <mxCell id="13" value="user_id" style="text;html=1;strokeColor=none;fillColor=none;align=center;verticalAlign=middle;whiteSpace=wrap;rounded=0;fontStyle=4;fontColor=#000000;" parent="yUulZCRCljH8GE0LO3J8-4" vertex="1">
                    <mxGeometry x="10.25" y="30" width="60" height="30" as="geometry"/>
                </mxCell>
                <mxCell id="14" value="name" style="text;html=1;strokeColor=none;fillColor=none;align=center;verticalAlign=middle;whiteSpace=wrap;rounded=0;fontStyle=0;fontColor=#000000;" parent="yUulZCRCljH8GE0LO3J8-4" vertex="1">
                    <mxGeometry x="10.25" y="55" width="60" height="30" as="geometry"/>
                </mxCell>
                <mxCell id="15" value="email" style="text;html=1;strokeColor=none;fillColor=none;align=center;verticalAlign=middle;whiteSpace=wrap;rounded=0;fontStyle=0;fontColor=#000000;" parent="yUulZCRCljH8GE0LO3J8-4" vertex="1">
                    <mxGeometry x="10.25" y="85" width="60" height="30" as="geometry"/>
                </mxCell>
                <mxCell id="16" value="password" style="text;html=1;strokeColor=none;fillColor=none;align=center;verticalAlign=middle;whiteSpace=wrap;rounded=0;fontStyle=0;fontColor=#000000;" parent="yUulZCRCljH8GE0LO3J8-4" vertex="1">
                    <mxGeometry x="10.25" y="115" width="60" height="30" as="geometry"/>
                </mxCell>
                <mxCell id="89" value="role" style="text;html=1;strokeColor=none;fillColor=none;align=center;verticalAlign=middle;whiteSpace=wrap;rounded=0;fontStyle=0;fontColor=#000000;" parent="yUulZCRCljH8GE0LO3J8-4" vertex="1">
                    <mxGeometry x="10.25" y="145" width="60" height="30" as="geometry"/>
                </mxCell>
                <mxCell id="103" style="edgeStyle=none;html=1;entryX=0.513;entryY=-0.03;entryDx=0;entryDy=0;entryPerimeter=0;endArrow=none;endFill=0;strokeColor=#000000;strokeWidth=2;" parent="1" source="yUulZCRCljH8GE0LO3J8-7" target="102" edge="1">
                    <mxGeometry relative="1" as="geometry"/>
                </mxCell>
                <mxCell id="yUulZCRCljH8GE0LO3J8-7" value="articles" style="swimlane;whiteSpace=wrap;html=1;strokeColor=#000000;strokeWidth=3;" parent="1" vertex="1">
                    <mxGeometry x="579.75" y="197.5" width="200" height="272.5" as="geometry"/>
                </mxCell>
                <mxCell id="17" value="article_id" style="text;html=1;strokeColor=none;fillColor=none;align=center;verticalAlign=middle;whiteSpace=wrap;rounded=0;fontStyle=4;fontColor=#000000;" parent="yUulZCRCljH8GE0LO3J8-7" vertex="1">
                    <mxGeometry x="17" y="40" width="60" height="30" as="geometry"/>
                </mxCell>
                <mxCell id="18" value="title" style="text;html=1;strokeColor=none;fillColor=none;align=center;verticalAlign=middle;whiteSpace=wrap;rounded=0;fontStyle=0;fontColor=#000000;" parent="yUulZCRCljH8GE0LO3J8-7" vertex="1">
                    <mxGeometry x="10.25" y="70" width="60" height="30" as="geometry"/>
                </mxCell>
                <mxCell id="19" value="description" style="text;html=1;strokeColor=none;fillColor=none;align=center;verticalAlign=middle;whiteSpace=wrap;rounded=0;fontStyle=0;fontColor=#000000;" parent="yUulZCRCljH8GE0LO3J8-7" vertex="1">
                    <mxGeometry x="17" y="100" width="60" height="30" as="geometry"/>
                </mxCell>
                <mxCell id="115" value="img_public_id" style="text;html=1;strokeColor=none;fillColor=none;align=center;verticalAlign=middle;whiteSpace=wrap;rounded=0;fontStyle=0;fontColor=#000000;" parent="yUulZCRCljH8GE0LO3J8-7" vertex="1">
                    <mxGeometry x="27" y="130" width="60" height="30" as="geometry"/>
                </mxCell>
                <mxCell id="119" value="content" style="text;html=1;strokeColor=none;fillColor=none;align=center;verticalAlign=middle;whiteSpace=wrap;rounded=0;fontStyle=0;fontColor=#000000;" parent="yUulZCRCljH8GE0LO3J8-7" vertex="1">
                    <mxGeometry x="17" y="160" width="60" height="30" as="geometry"/>
                </mxCell>
                <mxCell id="120" value="img" style="text;html=1;strokeColor=none;fillColor=none;align=center;verticalAlign=middle;whiteSpace=wrap;rounded=0;fontStyle=0;fontColor=#000000;" parent="yUulZCRCljH8GE0LO3J8-7" vertex="1">
                    <mxGeometry x="17" y="190" width="60" height="32.5" as="geometry"/>
                </mxCell>
                <mxCell id="121" value="date_of_creation" style="text;html=1;strokeColor=none;fillColor=none;align=center;verticalAlign=middle;whiteSpace=wrap;rounded=0;fontStyle=0;fontColor=#000000;" parent="yUulZCRCljH8GE0LO3J8-7" vertex="1">
                    <mxGeometry x="40.25" y="222.5" width="60" height="32.5" as="geometry"/>
                </mxCell>
                <mxCell id="38" style="edgeStyle=none;html=1;endArrow=none;endFill=0;strokeColor=#000000;strokeWidth=2;" parent="1" target="37" edge="1">
                    <mxGeometry relative="1" as="geometry">
                        <mxPoint x="579.75" y="322.5" as="sourcePoint"/>
                    </mxGeometry>
                </mxCell>
                <mxCell id="yUulZCRCljH8GE0LO3J8-36" value="&lt;p style=&quot;line-height: 130%;&quot;&gt;&lt;font style=&quot;font-size: 30px;&quot;&gt;MLD&lt;/font&gt;&lt;/p&gt;" style="text;html=1;strokeColor=none;fillColor=none;align=center;verticalAlign=middle;whiteSpace=wrap;rounded=0;strokeWidth=1;fontColor=#000000;" parent="1" vertex="1">
                    <mxGeometry x="140" y="1250" width="530" height="30" as="geometry"/>
                </mxCell>
                <mxCell id="9" value="1.1" style="text;html=1;strokeColor=none;fillColor=none;align=center;verticalAlign=middle;whiteSpace=wrap;rounded=0;fontColor=#000000;" parent="1" vertex="1">
                    <mxGeometry x="519.75" y="272.5" width="60" height="30" as="geometry"/>
                </mxCell>
                <mxCell id="39" style="edgeStyle=none;html=1;endArrow=none;endFill=0;strokeColor=#000000;strokeWidth=2;" parent="1" source="37" target="yUulZCRCljH8GE0LO3J8-4" edge="1">
                    <mxGeometry relative="1" as="geometry"/>
                </mxCell>
                <mxCell id="37" value="CrÃ©er" style="swimlane;whiteSpace=wrap;html=1;fillColor=#0050ef;fontColor=#ffffff;strokeColor=#001DBC;startSize=23;strokeWidth=3;" parent="1" vertex="1">
                    <mxGeometry x="319.75" y="277.5" width="200" height="90" as="geometry"/>
                </mxCell>
                <mxCell id="40" value="0.N" style="text;html=1;strokeColor=none;fillColor=none;align=center;verticalAlign=middle;whiteSpace=wrap;rounded=0;fontColor=#000000;" parent="1" vertex="1">
                    <mxGeometry x="245.88" y="272.5" width="60" height="30" as="geometry"/>
                </mxCell>
                <mxCell id="42" value="users" style="swimlane;whiteSpace=wrap;html=1;strokeWidth=3;strokeColor=#000000;" parent="1" vertex="1">
                    <mxGeometry x="39.749999999999986" y="1364" width="200" height="200" as="geometry"/>
                </mxCell>
                <mxCell id="43" value="user_id" style="text;html=1;strokeColor=none;fillColor=none;align=center;verticalAlign=middle;whiteSpace=wrap;rounded=0;fontStyle=4;fontColor=#000000;" parent="42" vertex="1">
                    <mxGeometry x="10.25" y="30" width="60" height="30" as="geometry"/>
                </mxCell>
                <mxCell id="44" value="name" style="text;html=1;strokeColor=none;fillColor=none;align=center;verticalAlign=middle;whiteSpace=wrap;rounded=0;fontStyle=0;fontColor=#000000;" parent="42" vertex="1">
                    <mxGeometry x="10.25" y="55" width="60" height="30" as="geometry"/>
                </mxCell>
                <mxCell id="45" value="email" style="text;html=1;strokeColor=none;fillColor=none;align=center;verticalAlign=middle;whiteSpace=wrap;rounded=0;fontStyle=0;fontColor=#000000;" parent="42" vertex="1">
                    <mxGeometry x="10.25" y="80" width="60" height="30" as="geometry"/>
                </mxCell>
                <mxCell id="46" value="password" style="text;html=1;strokeColor=none;fillColor=none;align=center;verticalAlign=middle;whiteSpace=wrap;rounded=0;fontStyle=0;fontColor=#000000;" parent="42" vertex="1">
                    <mxGeometry x="10.25" y="110" width="60" height="30" as="geometry"/>
                </mxCell>
                <mxCell id="113" value="role" style="text;html=1;strokeColor=none;fillColor=none;align=center;verticalAlign=middle;whiteSpace=wrap;rounded=0;fontStyle=0;fontColor=#000000;" parent="42" vertex="1">
                    <mxGeometry x="10.25" y="136" width="60" height="30" as="geometry"/>
                </mxCell>
                <mxCell id="124" style="edgeStyle=none;html=1;endArrow=classic;endFill=1;strokeColor=#000000;strokeWidth=2;" parent="1" source="48" target="42" edge="1">
                    <mxGeometry relative="1" as="geometry"/>
                </mxCell>
                <mxCell id="48" value="articles" style="swimlane;whiteSpace=wrap;html=1;strokeWidth=3;strokeColor=#000000;" parent="1" vertex="1">
                    <mxGeometry x="572.75" y="1309.5" width="200" height="309" as="geometry"/>
                </mxCell>
                <mxCell id="49" value="article_id" style="text;html=1;strokeColor=none;fillColor=none;align=center;verticalAlign=middle;whiteSpace=wrap;rounded=0;fontStyle=4;fontColor=#000000;" parent="48" vertex="1">
                    <mxGeometry x="17" y="40" width="60" height="30" as="geometry"/>
                </mxCell>
                <mxCell id="50" value="title" style="text;html=1;strokeColor=none;fillColor=none;align=center;verticalAlign=middle;whiteSpace=wrap;rounded=0;fontStyle=0;fontColor=#000000;" parent="48" vertex="1">
                    <mxGeometry x="17" y="70" width="60" height="30" as="geometry"/>
                </mxCell>
                <mxCell id="51" value="description" style="text;html=1;strokeColor=none;fillColor=none;align=center;verticalAlign=middle;whiteSpace=wrap;rounded=0;fontStyle=0;fontColor=#000000;" parent="48" vertex="1">
                    <mxGeometry x="17" y="100" width="60" height="30" as="geometry"/>
                </mxCell>
                <mxCell id="52" value="img_public_id" style="text;html=1;strokeColor=none;fillColor=none;align=center;verticalAlign=middle;whiteSpace=wrap;rounded=0;fontStyle=0;fontColor=#000000;" parent="48" vertex="1">
                    <mxGeometry x="27" y="130" width="60" height="30" as="geometry"/>
                </mxCell>
                <mxCell id="76" value="#user_id" style="text;html=1;strokeColor=none;fillColor=none;align=center;verticalAlign=middle;whiteSpace=wrap;rounded=0;fontStyle=0;fontColor=#000000;" parent="48" vertex="1">
                    <mxGeometry x="5.5" y="249" width="103" height="30" as="geometry"/>
                </mxCell>
                <mxCell id="114" value="content" style="text;html=1;strokeColor=none;fillColor=none;align=center;verticalAlign=middle;whiteSpace=wrap;rounded=0;fontStyle=0;fontColor=#000000;" parent="48" vertex="1">
                    <mxGeometry y="159" width="103" height="30" as="geometry"/>
                </mxCell>
                <mxCell id="116" value="img" style="text;html=1;strokeColor=none;fillColor=none;align=center;verticalAlign=middle;whiteSpace=wrap;rounded=0;fontStyle=0;fontColor=#000000;" parent="48" vertex="1">
                    <mxGeometry y="189" width="103" height="30" as="geometry"/>
                </mxCell>
                <mxCell id="117" value="date_of_creation" style="text;html=1;strokeColor=none;fillColor=none;align=center;verticalAlign=middle;whiteSpace=wrap;rounded=0;fontStyle=0;fontColor=#000000;" parent="48" vertex="1">
                    <mxGeometry x="17" y="219" width="103" height="30" as="geometry"/>
                </mxCell>
                <mxCell id="74" style="edgeStyle=none;html=1;endArrow=classic;endFill=1;strokeColor=#000000;strokeWidth=2;" parent="1" source="55" target="48" edge="1">
                    <mxGeometry relative="1" as="geometry"/>
                </mxCell>
                <mxCell id="112" style="edgeStyle=none;html=1;endArrow=classic;endFill=1;strokeColor=#000000;strokeWidth=2;" parent="1" source="55" target="42" edge="1">
                    <mxGeometry relative="1" as="geometry"/>
                </mxCell>
                <mxCell id="55" value="commentary" style="swimlane;whiteSpace=wrap;html=1;startSize=23;strokeWidth=3;strokeColor=#000000;" parent="1" vertex="1">
                    <mxGeometry x="306.13" y="1630" width="200" height="240" as="geometry"/>
                </mxCell>
                <mxCell id="56" value="commentary_id" style="text;html=1;strokeColor=none;fillColor=none;align=center;verticalAlign=middle;whiteSpace=wrap;rounded=0;fontStyle=4;fontColor=#000000;" parent="55" vertex="1">
                    <mxGeometry x="47.87" y="30" width="60" height="30" as="geometry"/>
                </mxCell>
                <mxCell id="58" value="description" style="text;html=1;strokeColor=none;fillColor=none;align=center;verticalAlign=middle;whiteSpace=wrap;rounded=0;fontStyle=0;fontColor=#000000;" parent="55" vertex="1">
                    <mxGeometry x="43.870000000000005" y="60" width="60" height="30" as="geometry"/>
                </mxCell>
                <mxCell id="59" value="date_of_creation" style="text;html=1;strokeColor=none;fillColor=none;align=center;verticalAlign=middle;whiteSpace=wrap;rounded=0;fontStyle=0;fontColor=#000000;" parent="55" vertex="1">
                    <mxGeometry x="47.870000000000005" y="90" width="60" height="30" as="geometry"/>
                </mxCell>
                <mxCell id="77" value="#user_id" style="text;html=1;strokeColor=none;fillColor=none;align=center;verticalAlign=middle;whiteSpace=wrap;rounded=0;fontStyle=0;fontColor=#000000;" parent="55" vertex="1">
                    <mxGeometry x="43.870000000000005" y="124" width="60" height="30" as="geometry"/>
                </mxCell>
                <mxCell id="109" value="#article_id" style="text;html=1;strokeColor=none;fillColor=none;align=center;verticalAlign=middle;whiteSpace=wrap;rounded=0;fontStyle=0;fontColor=#000000;" parent="55" vertex="1">
                    <mxGeometry x="47.870000000000005" y="160" width="60" height="30" as="geometry"/>
                </mxCell>
                <mxCell id="123" style="edgeStyle=none;html=1;endArrow=none;endFill=0;strokeColor=#000000;strokeWidth=2;" parent="1" source="91" target="102" edge="1">
                    <mxGeometry relative="1" as="geometry"/>
                </mxCell>
                <mxCell id="91" value="commentary" style="swimlane;whiteSpace=wrap;html=1;strokeWidth=3;strokeColor=#000000;" parent="1" vertex="1">
                    <mxGeometry x="579.75" y="830" width="200" height="150" as="geometry"/>
                </mxCell>
                <mxCell id="92" value="commentary_id" style="text;html=1;strokeColor=none;fillColor=none;align=center;verticalAlign=middle;whiteSpace=wrap;rounded=0;fontStyle=4;fontColor=#000000;" parent="91" vertex="1">
                    <mxGeometry x="27" y="40" width="60" height="30" as="geometry"/>
                </mxCell>
                <mxCell id="94" value="description" style="text;html=1;strokeColor=none;fillColor=none;align=center;verticalAlign=middle;whiteSpace=wrap;rounded=0;fontStyle=0;fontColor=#000000;" parent="91" vertex="1">
                    <mxGeometry x="20.25" y="70" width="60" height="30" as="geometry"/>
                </mxCell>
                <mxCell id="95" value="date_of_creation" style="text;html=1;strokeColor=none;fillColor=none;align=center;verticalAlign=middle;whiteSpace=wrap;rounded=0;fontStyle=0;fontColor=#000000;" parent="91" vertex="1">
                    <mxGeometry x="27" y="100" width="60" height="30" as="geometry"/>
                </mxCell>
                <mxCell id="101" style="edgeStyle=none;html=1;endArrow=none;endFill=0;strokeWidth=2;strokeColor=#000000;" parent="1" source="99" edge="1">
                    <mxGeometry relative="1" as="geometry">
                        <mxPoint x="580" y="920" as="targetPoint"/>
                    </mxGeometry>
                </mxCell>
                <mxCell id="99" value="Ecrire" style="swimlane;whiteSpace=wrap;html=1;fillColor=#0050ef;fontColor=#ffffff;strokeColor=#001DBC;strokeWidth=3;" parent="1" vertex="1">
                    <mxGeometry x="39.75" y="880" width="200" height="85.25" as="geometry"/>
                </mxCell>
                <mxCell id="102" value="PossÃ©der" style="swimlane;whiteSpace=wrap;html=1;fillColor=#0050ef;fontColor=#ffffff;strokeColor=#001DBC;strokeWidth=3;" parent="1" vertex="1">
                    <mxGeometry x="579.75" y="560" width="200" height="120" as="geometry"/>
                </mxCell>
                <mxCell id="105" value="0.N" style="text;html=1;strokeColor=none;fillColor=none;align=center;verticalAlign=middle;whiteSpace=wrap;rounded=0;fontColor=#000000;" parent="1" vertex="1">
                    <mxGeometry x="150" y="550" width="60" height="30" as="geometry"/>
                </mxCell>
                <mxCell id="106" value="1.1" style="text;html=1;strokeColor=none;fillColor=none;align=center;verticalAlign=middle;whiteSpace=wrap;rounded=0;fontColor=#000000;" parent="1" vertex="1">
                    <mxGeometry x="383.5" y="870" width="60" height="30" as="geometry"/>
                </mxCell>
                <mxCell id="107" value="0.N" style="text;html=1;strokeColor=none;fillColor=none;align=center;verticalAlign=middle;whiteSpace=wrap;rounded=0;fontColor=#000000;" parent="1" vertex="1">
                    <mxGeometry x="610" y="500" width="60" height="30" as="geometry"/>
                </mxCell>
                <mxCell id="108" value="1.1" style="text;html=1;strokeColor=none;fillColor=none;align=center;verticalAlign=middle;whiteSpace=wrap;rounded=0;fontColor=#000000;" parent="1" vertex="1">
                    <mxGeometry x="610" y="750" width="60" height="30" as="geometry"/>
                </mxCell>
            </root>
        </mxGraphModel>
    </diagram>
</mxfile>